<svg height="23" viewBox="0 0 122 23" width="122" xmlns="http://www.w3.org/2000/svg" xmlns:xlink="http://www.w3.org/1999/xlink"><mask id="a" fill="#fff"><path d="m0 .16033962h10.6178017v16.20339618h-10.6178017z" fill="#fff" fill-rule="evenodd"/></mask><mask id="b" fill="#fff"><path d="m.0000975.00013143h25.3499025v9.85714286h-25.3499025z" fill="#fff" fill-rule="evenodd"/></mask><mask id="c" fill="#fff"><path d="m0 .00013143h24.375v22.99986857h-24.375z" fill="#fff" fill-rule="evenodd"/></mask><g fill="none" fill-rule="evenodd"><g fill="#000" transform="translate(34 2)"><path d="m46.1268923.37720755v2.17283019h4.3304274v13.75924526h2.1646495v-13.75924526h4.3304274v-2.17283019z"/><g transform="translate(0 .30766)"><path d="m82.7533949 16.0016226c-1.9845128 0-3.7888889-1.4483018-4.757265-3.4973584l2.2485128-.6584906c.5509402 1.1064151 1.4219146 2.0471698 2.436171 2.1056604 2.112.1226415 3.1202393-.6260378 3.1397948-2.4758491.0116582-1.0935849-1.9247179-1.96943396-2.6494017-2.29962264-.1459145-.06641509-.2688889-.12264151-.3610256-.16830188-.0804786-.04113208-.181641-.0864151-.2978462-.13811321-1.0086153-.45509434-3.107829-1.40150943-3.5282735-3.61169811-.2448205-1.28415095.0853676-2.59169812.9055727-3.58716981.7998974-.97018868 1.9450256-1.50490566 3.2244102-1.50490566 1.7566154 0 3.2424616.50679245 4.5105641 2.07660377l-1.2733675 1.65773585c-.8487863-1.0509434-2.1503589-1.56150944-3.2371966-1.56150944-.622017 0-1.1748376.25471698-1.5561709.71698114-.401641.48716981-.5689914 1.1581132-.4478974 1.79433962.2094701 1.09924528 1.5117948 1.68679245 2.2898803 2.03773585.1477949.06641509.2764103.12528302.3790769.17622641.0729573.03698113.1707351.08113208.2865641.13396227 1.1729573.53396226 3.9201368 1.78415094 3.9201368 4.27773584 0 4.5260377-3.6666667 4.5260377-5.2322393 4.5260377"/><path d="m16.6832581 13.4669811c-1.1940171 0-2.1654017-.9743396-2.1654017-2.1724528v-2.89698113c0-1.19773585.9713846-2.17207547 2.1654017-2.17207547s2.1650257.97433962 2.1650257 2.17207547v2.89698113c0 1.1981132-.9710086 2.1724528-2.1650257 2.1724528m0-9.41396223c-.7893675 0-1.5275897.21622641-2.1654017.58754717v-.58754717h-2.1650256v15.56943393h2.1650256v-4.570566c.637812.3716981 1.3760342.5879245 2.1654017.5879245 2.265812 0 4.1277265-1.7562264 4.312-3.9833962l.0180513-3.25886793c0-2.3954717-1.9423932-4.3445283-4.3300513-4.3445283"/><path d="m61.2826359 13.8292453c-1.1590427 0-2.2545299-.9033962-2.337641-1.8909434.0413675-.4607547.423829-.8245283.8939145-.8245283h3.9697778v.7060377c0 1.0139623-1.2515556 2.009434-2.5260513 2.009434zm4.6726496-5.43169813c.0184273-2.17207547-2.045812-3.98264151-4.312-3.98264151-.3644103 0-.7269402.04566038-1.077812.13584906-.9270085.23849056-1.7615043.79018868-2.3492991 1.55320754l1.7122393 1.32905661c.2952137-.38226415.632547-.84528302 1.7148718-.84528302 2.1654017 0 2.1654017 2.35320755 2.1654017 2.35320755h-3.9697778c-1.6238632 0-2.953641 1.274717-3.0570598 2.8788679l.0015042.1988679c.1214701 2.1433963 2.1684103 3.9830189 4.4992821 3.9830189.9142222 0 1.7859487-.2633962 2.5260513-.7045283v.7045283h2.1650256z"/><path d="m72.1081778 13.8292453c-1.1590428 0-2.2545299-.9033962-2.337641-1.8909434.0413675-.4607547.423829-.8245283.8942906-.8245283h3.9694017v.7060377c0 1.0139623-1.2511795 2.009434-2.5260513 2.009434zm4.6730256-5.43169813c.0180513-2.17207547-2.046188-3.98264151-4.312376-3.98264151-.3644103 0-.7269402.04566038-1.077812.13584906-.9270086.23849056-1.7615043.79018868-2.3492992 1.55320754l1.7122394 1.32905661c.2952136-.38226415.632547-.84528302 1.7148718-.84528302 2.1654017 0 2.1654017 2.35320755 2.1654017 2.35320755h-3.9694017c-1.6242394 0-2.9540171 1.274717-3.0574359 2.8788679l.0015042.1988679c.1214701 2.1433963 2.1684103 3.9830189 4.4992821 3.9830189.9142222 0 1.7859487-.2633962 2.5260513-.7045283v.7045283h2.1650256z"/><path d="m38.1199077 4.05290566c-.7893675 0-1.5275898.21622642-2.1650256.58792453v-.58792453h-2.1654018v11.94867924h2.1654018v-7.60377358c0-1.19811321.9710085-2.17245283 2.1650256-2.17245283s2.1650256.97433962 2.1650256 2.17245283v7.60377358h2.1654017v-7.60377358c0-2.39584906-1.9423931-4.34490566-4.3304273-4.34490566"/><path d="m27.5576513 6.58754717c.808547 0 2.1650256.28188679 2.1650256 2.17245283v.36188679h-4.6060854c.3320683-2.53207547 1.5761025-2.53433962 2.4410598-2.53433962zm2.7185983 6.10264153c-.4821197.5856604-1.672 1.1388679-2.4478291 1.1388679-1.8953846 0-2.5211624-1.3916981-2.7152137-2.5343396h6.7744958l-.0150428-2.89698115c-.1553162-2.39660377-1.8476239-3.98301887-4.3150085-3.98301887-3.085641 0-4.6169915 1.9290566-4.6846838 5.88415092l.0033846.2716981c.1004103 3.3067925 2.018359 5.4309434 4.9520684 5.4309434 1.4181539 0 3.2266667-.8464151 4.1168205-1.9271698z"/><path d="m8.46631453 11.0229811c0 1.7471698-1.4162735 3.1683019-3.15747009 3.1683019-1.74119658 0-3.15747008-1.4211321-3.15747008-3.1683019v-5.52188676c0-1.74716981 1.4162735-3.16830189 3.15747008-3.16830189 1.74119659 0 3.15747009 1.42113208 3.15747009 3.16830189zm2.14697437-5.88415091c-.186906-2.7754717-2.491453-4.97849057-5.30444446-4.97849057-2.81299145 0-5.11753846 2.20301887-5.30444444 4.97849057l-.00451282 6.15584901c.14215385 2.8181133 2.46550427 5.0690566 5.30895726 5.0690566 2.843453 0 5.16680346-2.2509433 5.30895726-5.0690566z" mask="url(#a)"/></g></g><g fill="#3f7bef"><path d="m18.2231725 3.28584571-2.757625-2.78792857-.001625.00164286c-.2951-.30721429-.706875-.49942857-1.163825-.49942857-.4654 0-.882375.2001-1.178775.51717143l-.002925-.00328572-5.3183 5.37707143-2.08455-2.10745714-.001625.00164286c-.2951-.30721429-.706875-.49942858-1.163825-.49942858h-4.55v3.28571429h3.8766l2.75795 2.78792857.001625-.00164286c.2951.30721429.70655.49942858 1.163825.49942858.465075 0 .882375-.20042858 1.178775-.5175l.0026.00328571 5.318625-5.37707143 2.08455 2.10778572.001625-.00164286c.2951.30721428.70655.49942857 1.163825.49942857h7.8v-3.28571429z" mask="url(#b)" transform="translate(.65 8.214286)"/><path d="m24.375 9.85727429v-8.21428572c0-.90751428-.72735-1.64285714-1.625-1.64285714-.074425 0-.1456.01215714-.21775.02201428h-20.6895c-.07215-.00985714-.143325-.02201428-.21775-.02201428-.89765 0-1.625.73534286-1.625 1.64285714 0 .00657143.00195.01215714.00195.01905714h-.00195v19.69522859c0 .9071857.72735 1.6428571 1.625 1.6428571.052975 0 .103025-.0108428.155025-.0161v.0161h20.62385v-.0394285c.111475.0246428.227175.0394285.346125.0394285.89765 0 1.625-.7356714 1.625-1.6428571v-4.9285714h-3.25v3.2857142h-17.875v-16.4065571h17.875v6.54941429z" mask="url(#c)"/></g></g></svg>